<mxfile host="app.diagrams.net" modified="2021-10-19T01:17:36.185Z" agent="5.0 (Windows NT 10.0; Win64; x64) AppleWebKit/537.36 (KHTML, like Gecko) Chrome/94.0.4606.81 Safari/537.36" etag="p2mRIN0eUp4KU4N9CGGN" version="15.5.5" type="github">
  <diagram name="Page-1" id="9f46799a-70d6-7492-0946-bef42562c5a5">
    <mxGraphModel dx="1422" dy="804" grid="1" gridSize="10" guides="1" tooltips="1" connect="1" arrows="1" fold="1" page="1" pageScale="1" pageWidth="1100" pageHeight="850" background="none" math="0" shadow="0">
      <root>
        <mxCell id="0" />
        <mxCell id="1" parent="0" />
        <mxCell id="-WT0Ookjy2M-xjDNV0O8-2" value="" style="rounded=0;whiteSpace=wrap;html=1;rotation=90;verticalAlign=bottom;" vertex="1" parent="1">
          <mxGeometry x="-60" y="200" width="480" height="250" as="geometry" />
        </mxCell>
        <mxCell id="-WT0Ookjy2M-xjDNV0O8-3" value="Golf Scorecard" style="rounded=0;whiteSpace=wrap;html=1;" vertex="1" parent="1">
          <mxGeometry x="70" y="100" width="220" height="20" as="geometry" />
        </mxCell>
        <mxCell id="-WT0Ookjy2M-xjDNV0O8-4" value="Hole&lt;span style=&quot;white-space: pre&quot;&gt;	&lt;/span&gt;&amp;nbsp; &amp;nbsp; &amp;nbsp; &amp;nbsp;Par&amp;nbsp; &amp;nbsp; &amp;nbsp; &amp;nbsp;Score&amp;nbsp; &amp;nbsp; &amp;nbsp; Diff&amp;nbsp; &amp;nbsp; &amp;nbsp;Actions" style="rounded=0;whiteSpace=wrap;html=1;align=left;" vertex="1" parent="1">
          <mxGeometry x="70" y="130" width="220" height="20" as="geometry" />
        </mxCell>
        <mxCell id="-WT0Ookjy2M-xjDNV0O8-5" value="Information in line with above headings go here" style="rounded=0;whiteSpace=wrap;html=1;align=center;" vertex="1" parent="1">
          <mxGeometry x="70" y="160" width="220" height="360" as="geometry" />
        </mxCell>
        <mxCell id="-WT0Ookjy2M-xjDNV0O8-6" value="" style="ellipse;whiteSpace=wrap;html=1;aspect=fixed;align=center;" vertex="1" parent="1">
          <mxGeometry x="270" y="530" width="20" height="20" as="geometry" />
        </mxCell>
        <mxCell id="-WT0Ookjy2M-xjDNV0O8-9" value="" style="endArrow=classic;html=1;rounded=0;" edge="1" parent="1">
          <mxGeometry width="50" height="50" relative="1" as="geometry">
            <mxPoint x="280" y="540" as="sourcePoint" />
            <mxPoint x="510" y="320" as="targetPoint" />
          </mxGeometry>
        </mxCell>
        <mxCell id="-WT0Ookjy2M-xjDNV0O8-10" value="" style="rounded=0;whiteSpace=wrap;html=1;align=center;verticalAlign=bottom;rotation=90;" vertex="1" parent="1">
          <mxGeometry x="390" y="220" width="480" height="230" as="geometry" />
        </mxCell>
        <mxCell id="-WT0Ookjy2M-xjDNV0O8-11" value="Options" style="rounded=0;whiteSpace=wrap;html=1;align=center;verticalAlign=bottom;" vertex="1" parent="1">
          <mxGeometry x="530" y="110" width="200" height="20" as="geometry" />
        </mxCell>
        <mxCell id="-WT0Ookjy2M-xjDNV0O8-12" value="" style="ellipse;whiteSpace=wrap;html=1;aspect=fixed;align=center;verticalAlign=bottom;" vertex="1" parent="1">
          <mxGeometry x="720" y="550" width="20" height="20" as="geometry" />
        </mxCell>
        <mxCell id="-WT0Ookjy2M-xjDNV0O8-13" value="" style="curved=1;endArrow=classic;html=1;rounded=0;" edge="1" parent="1" source="-WT0Ookjy2M-xjDNV0O8-12">
          <mxGeometry width="50" height="50" relative="1" as="geometry">
            <mxPoint x="740" y="650" as="sourcePoint" />
            <mxPoint x="330" y="520" as="targetPoint" />
            <Array as="points">
              <mxPoint x="680" y="670" />
              <mxPoint x="510" y="650" />
            </Array>
          </mxGeometry>
        </mxCell>
        <mxCell id="-WT0Ookjy2M-xjDNV0O8-14" value="This screen would contain options such as:&lt;br&gt;Lefty mode (actions on left)&lt;br&gt;Landscape mode&lt;br&gt;Toggle between 9 and 18 holes&lt;br&gt;An about section&lt;br&gt;A save scorecard option" style="rounded=0;whiteSpace=wrap;html=1;align=center;verticalAlign=top;" vertex="1" parent="1">
          <mxGeometry x="530" y="140" width="200" height="400" as="geometry" />
        </mxCell>
      </root>
    </mxGraphModel>
  </diagram>
</mxfile>
